<?xml version="1.0" standalone="no"?>
<!DOCTYPE svg PUBLIC "-//W3C//DTD SVG 20010904//EN"
 "http://www.w3.org/TR/2001/REC-SVG-20010904/DTD/svg10.dtd">
<svg version="1.0" xmlns="http://www.w3.org/2000/svg"
 width="512.000000pt" height="512.000000pt" viewBox="0 0 512.000000 512.000000"
 preserveAspectRatio="xMidYMid meet">
<metadata>
Created by potrace 1.14, written by Peter Selinger 2001-2017
</metadata>
<g transform="translate(0.000000,512.000000) scale(0.100000,-0.100000)"
fill="#000000" stroke="none">
<path d="M2870 3338 c-25 -4 -63 -10 -84 -13 -22 -3 -72 -15 -110 -27 -39 -12
-78 -22 -86 -22 -8 0 -17 -3 -20 -6 -3 -3 -43 -24 -90 -48 -47 -24 -97 -54
-112 -66 -57 -51 -61 -165 -6 -196 26 -14 32 -12 150 47 134 67 186 87 263
103 28 5 61 12 75 15 14 3 66 6 115 7 167 2 286 -39 370 -126 87 -90 115 -174
115 -341 0 -60 -2 -121 -5 -135 -4 -14 -7 -34 -9 -45 -7 -49 -30 -132 -42
-150 -7 -11 -14 -24 -15 -30 -8 -39 -49 -105 -101 -160 -21 -22 -38 -43 -38
-47 0 -5 -4 -8 -9 -8 -6 0 -30 -14 -55 -30 -52 -36 -168 -78 -208 -76 -16 1
-28 -2 -28 -6 0 -5 -53 -7 -117 -6 l-118 3 2 64 c2 35 8 70 14 77 7 8 7 14 2
14 -8 0 2 90 15 143 1 4 2 8 3 10 0 1 2 18 4 37 3 19 7 46 10 60 15 77 26 132
30 160 2 14 15 70 29 125 15 55 29 110 31 122 3 12 10 34 15 48 21 56 -1 122
-36 108 -8 -3 -14 -1 -14 4 0 12 -91 7 -134 -7 -19 -6 -41 -21 -49 -33 -12
-19 -55 -174 -74 -267 -8 -42 -11 -55 -13 -55 -1 0 -3 -16 -6 -35 -2 -19 -7
-42 -10 -50 -4 -8 -8 -30 -10 -48 -2 -18 -9 -42 -15 -53 -8 -17 -8 -20 1 -14
9 5 9 3 2 -11 -5 -11 -7 -25 -5 -31 3 -7 1 -13 -4 -13 -6 0 -9 -10 -8 -22 1
-13 -2 -39 -6 -58 -7 -33 -15 -83 -25 -155 -5 -34 -15 -158 -16 -195 -2 -66
43 -107 125 -113 24 -2 48 -6 53 -9 12 -8 353 -3 384 5 22 6 45 11 114 23 10
2 24 8 32 15 8 6 14 8 14 5 0 -4 10 0 21 8 12 8 28 12 35 9 8 -3 14 0 14 6 0
6 9 11 19 11 11 0 21 3 23 8 2 4 24 18 51 32 26 13 47 28 47 32 0 5 5 8 10 8
6 0 28 15 48 34 20 19 46 43 57 53 39 36 89 107 132 189 23 46 40 84 37 84 -4
0 -2 6 3 13 9 10 29 87 49 182 7 36 10 260 3 327 -2 27 -7 48 -11 48 -5 0 -8
13 -8 28 0 15 -5 33 -12 40 -7 7 -9 12 -5 12 13 0 -65 135 -101 175 -76 85
-171 145 -282 180 -91 28 -137 35 -270 38 -58 2 -125 -1 -150 -5z"/>
<path d="M1605 3322 c-3 -3 -30 -8 -91 -16 -69 -9 -188 -38 -203 -50 -8 -6
-17 -10 -20 -9 -28 12 -211 -123 -211 -155 0 -7 -4 -12 -10 -12 -5 0 -10 -8
-10 -18 0 -10 -4 -22 -9 -27 -20 -20 -31 -153 -20 -235 6 -45 53 -123 84 -140
64 -35 162 14 170 85 1 6 -8 28 -18 50 -11 22 -21 56 -23 75 -1 19 -4 40 -5
45 -6 17 24 79 50 104 30 28 98 58 143 63 18 2 36 6 39 11 3 4 70 10 150 13
79 3 152 7 162 9 9 2 17 0 17 -3 0 -4 28 -7 63 -8 l62 0 -1 -45 c-2 -43 -11
-135 -20 -194 -4 -29 -15 -136 -17 -162 0 -7 -4 -13 -9 -13 -5 0 -6 -5 -3 -10
4 -6 4 -28 0 -50 -6 -34 -11 -40 -43 -51 -111 -35 -353 -171 -437 -244 -62
-54 -100 -93 -115 -115 -8 -12 -20 -28 -26 -34 -12 -13 -46 -74 -43 -78 1 -2
-8 -22 -20 -45 -12 -24 -19 -43 -15 -43 4 0 1 -6 -5 -13 -6 -8 -9 -16 -7 -18
2 -2 1 -23 -4 -47 -4 -23 -4 -44 -1 -47 4 -2 6 -18 5 -36 -3 -45 30 -127 69
-170 36 -40 101 -82 110 -72 4 3 7 1 7 -5 0 -13 8 -14 130 -15 67 -1 97 4 143
22 31 12 63 29 71 37 8 8 18 14 22 14 17 0 154 157 155 177 0 5 6 15 14 23 16
18 85 160 78 160 -3 0 1 10 9 23 13 20 65 173 73 214 2 10 4 18 6 18 1 0 3 9
5 20 1 11 10 49 19 85 9 36 19 76 21 90 2 14 9 49 15 78 10 51 18 98 24 152 2
14 4 25 5 25 2 0 6 27 14 95 3 25 8 64 11 85 4 22 7 54 9 70 1 17 5 35 9 42 4
6 4 18 1 26 -4 12 5 19 35 27 23 6 41 17 41 24 0 8 7 19 15 26 10 9 12 17 6
23 -5 5 -7 16 -4 23 3 8 0 27 -7 43 -19 47 -95 71 -305 97 -51 6 -354 11 -360
6z m219 -990 c-10 -38 -12 -43 -18 -78 -11 -59 -63 -210 -96 -276 -60 -122
-154 -201 -223 -189 -37 7 -67 27 -83 56 -13 24 -8 164 6 183 2 1 3 6 4 12 0
5 7 15 14 22 6 6 12 16 12 21 0 24 94 124 164 174 17 12 37 27 44 33 6 6 12 8
12 4 0 -4 8 -1 18 7 28 23 82 51 82 42 0 -4 4 -2 9 6 5 8 17 16 26 17 9 1 20
5 23 9 11 11 14 -14 6 -43z"/>
</g>
</svg>
